<svg width="62" height="49" viewBox="0 0 62 49" fill="none" xmlns="http://www.w3.org/2000/svg">
    <path
        d="M60.6902 0.500185C59.7777 5.97506 57.3545 21.624 48.8849 22.0274C45.3607 22.1952 40.4278 20.4295 38.1599 17.5136C33.2896 11.2517 39.7875 0.858033 45.7214 9.48915C49.0493 14.3296 46.35 21.2457 44.3712 26.1168C41.4542 33.297 35.7523 36.716 28.9781 39.6966C25.5378 41.2104 8.09356 44.584 8.60833 43.5546"
        stroke="#8A8F98" stroke-linecap="round" />
    <path
        d="M2.35855 45.6379C2.92508 44.5973 7.5194 36.7704 6.83371 37.652C5.93623 38.8059 5.12968 40.0891 4.09458 41.1242C2.86997 42.3487 1.97294 43.8631 0.622457 44.9435C-0.562592 45.8915 7.20916 47.7212 8.60838 47.7212"
        stroke="#737373" stroke-linecap="round" />
</svg>