<svg width="100" height="100" viewBox="0 0 100 100" fill="none" xmlns="http://www.w3.org/2000/svg">
    <rect x="1.5" y="1.5" width="97" height="97" rx="22.5" fill="url(#paint0_linear_31_275)"
        stroke="url(#paint1_linear_31_275)" stroke-width="3" />
    <path
        d="M27.95 48.7391C30.6707 45.5766 36.6107 38.4976 41.15 32.9999L46.6927 26.2755C48.4024 24.2014 50.9496 23 53.6375 23H62.6C67.1494 23 70.8516 23.1436 73.3429 23.341C75.3973 23.5037 77.1835 24.5434 77.4403 26.5882C77.8255 29.6558 78 36.0416 78 49.72C78 62.5898 77.8109 69.4468 77.5586 72.8365C77.4169 74.7404 76.0242 75.5475 74.39 74.5605C74.1296 74.4033 73.8646 74.2356 73.6 74.0609C72.1847 73.1311 69.948 70.7373 68.6207 68.7315C66.2447 65.1371 66.208 64.9834 66.164 56.3085C66.142 51.477 65.9073 44.3028 65.6433 40.357C65.2987 35.1814 64.8587 32.9999 64.0667 32.5021C63.458 32.1214 62.3873 31.7993 61.6833 31.7993C60.9353 31.792 56.2127 36.5869 50.3167 43.3438C44.7727 49.7054 38.5833 56.821 36.5667 59.1635C34.55 61.4988 32.6507 63.8707 32.35 64.4343C32.0493 64.998 31.9833 65.7081 32.2033 66.0083C32.4307 66.3084 33.8313 66.1913 35.32 65.7374C36.816 65.2908 42.8807 62.9849 48.7987 60.613C58.442 56.7551 59.6887 56.4257 60.752 57.4066C61.698 58.2851 61.9253 60.0493 61.9107 66.1913C61.896 72.853 61.698 74.0975 60.4147 75.525C59.0041 77.095 58.7874 77.1686 27.278 76.8464C25.1106 76.8242 23.3383 75.0794 23.3027 72.9122L23.025 56.0023C23.0089 55.0208 23.3543 54.0676 23.9955 53.3242L27.95 48.7391Z"
        fill="#FBFCF8" />
    <defs>
        <linearGradient id="paint0_linear_31_275" x1="0" y1="0" x2="117.5" y2="117.5"
            gradientUnits="userSpaceOnUse">
            <stop offset="0.0722127" stop-color="#03070F" />
            <stop offset="1" stop-color="#0066FF" />
        </linearGradient>
        <linearGradient id="paint1_linear_31_275" x1="0" y1="0" x2="100" y2="100"
            gradientUnits="userSpaceOnUse">
            <stop stop-color="white" stop-opacity="0.1" />
            <stop offset="1" stop-color="white" stop-opacity="0.05" />
        </linearGradient>
    </defs>
</svg>