<svg width="85" height="30" viewBox="0 0 85 30" fill="none" xmlns="http://www.w3.org/2000/svg">
<g clip-path="url(#clip0_31_8)">
<path d="M24.6965 8.47499C23.8163 8.47499 23.0357 8.94078 22.56 9.6592L19.3301 14.5283C19.2136 14.7108 19.0133 14.8224 18.7962 14.8243C18.434 14.8243 18.14 14.5085 18.14 14.1178C18.14 13.9727 18.1794 13.8365 18.2485 13.726L20.9761 9.33651C21.514 8.45723 21.5633 7.36479 21.1074 6.44111C20.6515 5.52335 19.7633 4.95197 18.7962 4.95197H4.37549V7.77137H16.8324C16.8324 8.549 16.2442 9.18157 15.5209 9.18157H4.37549C4.37549 10.1842 4.5699 11.1375 4.92417 12.002H14.2104C14.2104 12.7786 13.6222 13.4112 12.8998 13.4112H5.68601C6.88207 15.1233 8.78667 16.2316 10.9331 16.2316H14.8636C15.2268 16.2316 15.5209 16.5483 15.5209 16.9372C15.5209 17.328 15.2268 17.6447 14.8636 17.6447H10.9331L6.55246 24.6967H15.1942C18.8229 24.6967 21.9028 22.1576 22.9784 18.6434L24.4557 13.8276C24.9166 12.303 25.7791 10.9303 26.9544 9.85361C26.4926 9.02664 25.6548 8.47499 24.6965 8.47499ZM24.6965 10.4151C24.4261 10.4151 24.2061 10.1793 24.2061 9.88815C24.2061 9.59703 24.4261 9.36019 24.6965 9.36019C24.9689 9.36019 25.187 9.59802 25.187 9.88815C25.19 10.1783 24.9689 10.4151 24.6965 10.4151ZM43.4229 17.773C43.9528 18.5053 44.2173 19.3411 44.2173 20.2826C44.2173 21.6395 43.7761 22.7131 42.8949 23.5066C42.0146 24.299 40.784 24.6967 39.209 24.6967H32.1827V8.46907H38.9742C40.5067 8.46907 41.7077 8.84604 42.5742 9.60196C43.4406 10.3569 43.8729 11.3822 43.8729 12.677C43.8729 13.6332 43.6409 14.4266 43.1761 15.0592C42.7163 15.6878 42.064 16.1506 41.3179 16.3756C42.1893 16.574 42.8919 17.0398 43.4229 17.773ZM35.8567 15.0345H38.2627C38.8656 15.0345 39.3275 14.8924 39.6482 14.6053C39.9699 14.321 40.1327 13.8987 40.1327 13.346C40.1327 12.7914 39.9729 12.3691 39.6482 12.076C39.3275 11.7819 38.8656 11.6368 38.2627 11.6368H35.8567V15.0345ZM39.9956 21.0533C40.3311 20.7543 40.5008 20.3201 40.5008 19.7487C40.5008 19.1773 40.3252 18.7303 39.9729 18.4066C39.6225 18.0829 39.138 17.922 38.5212 17.922H35.8567V21.5043H38.5646C39.1814 21.5072 39.6571 21.3562 39.9956 21.0533ZM50.0199 8.46907V24.6967H46.3459V8.46907H50.0199ZM60.3788 24.6967L57.2416 18.5694H56.3613V24.6967H52.6844V8.46907H58.8511C60.0403 8.46907 61.0538 8.69012 61.8906 9.13815C62.7284 9.58519 63.3571 10.199 63.7725 10.9776C64.189 11.7543 64.3952 12.6217 64.3952 13.578C64.3952 14.6576 64.111 15.6197 63.5465 16.4694C62.9801 17.3171 62.1462 17.9191 61.0419 18.2704L64.5245 24.6967H60.3788ZM56.3584 15.7707H58.635C59.309 15.7707 59.8143 15.596 60.1498 15.2408C60.4854 14.8855 60.6551 14.3862 60.6551 13.7388C60.6551 13.121 60.4854 12.6375 60.1498 12.2822C59.8143 11.927 59.309 11.7513 58.635 11.7513H56.3584V15.7707ZM76.5186 9.48354C77.6949 10.1487 78.6541 11.1405 79.2807 12.3375C79.9311 13.5622 80.2587 14.9753 80.2587 16.5799C80.2587 18.1687 79.9311 19.5789 79.2807 20.8105C78.6561 22.0155 77.6919 23.0122 76.5067 23.6753C75.3107 24.3543 73.9252 24.6937 72.3482 24.6937H66.6956V8.46611H72.3482C73.9409 8.46907 75.3284 8.80854 76.5186 9.48354ZM75.3571 20.0507C76.1307 19.2335 76.5186 18.0789 76.5186 16.5829C76.5186 15.0888 76.1307 13.9233 75.3571 13.0934C74.5824 12.2605 73.5018 11.8441 72.1133 11.8441H70.3725V21.2753H72.1133C73.5018 21.2753 74.5824 20.8648 75.3571 20.0507Z" fill="white"/>
</g>
<defs>
<clipPath id="clip0_31_8">
<rect width="85" height="30" fill="white"/>
</clipPath>
</defs>
</svg>
