<svg width="92" height="18" viewBox="0 0 92 18" fill="none" xmlns="http://www.w3.org/2000/svg">
    <g clip-path="url(#clip0_31_66)">
        <g clip-path="url(#clip1_31_66)">
            <g clip-path="url(#clip2_31_66)">
                <mask id="mask0_31_66" style="mask-type:luminance" maskUnits="userSpaceOnUse" x="0"
                    y="0" width="92" height="18">
                    <path d="M0.430176 0H91.8502V18H0.430176V0Z" fill="white" />
                </mask>
                <g mask="url(#mask0_31_66)">
                    <path
                        d="M11.0302 3.38L5.73018 6.76L11.0302 10.15L5.73018 13.53L0.430176 10.13L5.73018 6.75L0.430176 3.38L5.73018 0L11.0302 3.38ZM5.70018 14.62L11.0002 11.24L16.3002 14.62L11.0002 18L5.70018 14.62ZM11.0302 10.12L16.3302 6.75L11.0302 3.38L16.3002 0L21.6002 3.38L16.3002 6.76L21.6002 10.15L16.3002 13.53L11.0302 10.13V10.12ZM25.7702 3.38H30.0502C32.7902 3.38 35.0502 4.96 35.0502 8.58V9.33C35.0502 12.97 32.9302 14.61 30.1402 14.61H25.7702V3.38ZM28.1702 5.42V12.56H30.0002C31.5502 12.56 32.6002 11.55 32.6002 9.29V8.69C32.6002 6.44 31.5002 5.42 29.9202 5.42H28.1602H28.1702ZM36.3202 5.53H38.2402L38.5402 7.64C38.9102 6.21 39.8402 5.44 41.5402 5.44H42.1302V7.86H41.1402C39.2002 7.86 38.7202 8.54 38.7202 10.46V14.64H36.3502V5.54H36.3202V5.53ZM42.6102 10.27V10C42.6102 6.96 44.5502 5.3 47.2102 5.3C49.9102 5.3 51.8102 6.96 51.8102 10V10.26C51.8102 13.25 49.9602 14.86 47.2102 14.86C44.2702 14.83 42.6102 13.26 42.6102 10.26V10.27ZM49.3802 10.24V10C49.3802 8.3 48.5302 7.3 47.1802 7.3C45.8502 7.3 44.9802 8.23 44.9802 10V10.23C44.9802 11.86 45.8202 12.8 47.1802 12.8C48.5302 12.77 49.3802 11.86 49.3802 10.23V10.24ZM53.0502 5.54H55.0202L55.2502 7.24C55.4835 6.64484 55.8973 6.13768 56.4336 5.78974C56.9698 5.44179 57.6016 5.27053 58.2402 5.3C60.5502 5.3 62.0802 6.97 62.0802 10.05V10.3C62.0802 13.3 60.3802 14.87 58.2402 14.87C56.8002 14.87 55.8202 14.22 55.3402 13.18V17.78H53.0202L53.0502 5.53V5.54ZM59.6702 10.24V10.04C59.6702 8.23 58.7402 7.34 57.5002 7.34C56.1702 7.34 55.3002 8.34 55.3002 10.04V10.21C55.3002 11.82 56.1402 12.83 57.4702 12.83C58.8302 12.81 59.6702 11.93 59.6702 10.23V10.24ZM65.5702 12.95L65.3702 14.62H63.3502V2.49H65.6602V7.14C66.1702 5.95 67.1902 5.3 68.6202 5.3C70.8002 5.33 72.4102 6.83 72.4102 9.85V10.13C72.4102 13.15 70.8802 14.87 68.5702 14.87C67.0402 14.84 66.0502 14.13 65.5702 12.95ZM69.9702 10.13V9.9C69.9702 8.24 69.0702 7.3 67.8002 7.3C66.5002 7.3 65.6002 8.35 65.6002 9.93V10.13C65.6002 11.82 66.4702 12.81 67.7702 12.81C69.1702 12.81 69.9702 11.94 69.9702 10.13ZM73.4202 10.27V10C73.4202 6.96 75.3702 5.3 78.0202 5.3C80.7202 5.3 82.6202 6.96 82.6202 10V10.26C82.6202 13.25 80.7502 14.86 78.0202 14.86C75.0902 14.83 73.4202 13.26 73.4202 10.26V10.27ZM80.2202 10.24V10C80.2202 8.3 79.3602 7.3 78.0202 7.3C76.6902 7.3 75.8102 8.23 75.8102 10V10.23C75.8102 11.86 76.6602 12.8 78.0102 12.8C79.3702 12.77 80.2102 11.86 80.2102 10.23L80.2202 10.24ZM85.7202 9.9L82.5202 5.53H85.2602L87.1002 8.26L88.9602 5.53H91.6602L88.4302 9.87L91.8402 14.62H89.1602L87.0802 11.6L85.0502 14.62H82.2502L85.7202 9.9Z"
                        fill="white" />
                </g>
            </g>
        </g>
    </g>
    <defs>
        <clipPath id="clip0_31_66">
            <rect width="92" height="18" fill="white" />
        </clipPath>
        <clipPath id="clip1_31_66">
            <rect width="92" height="18" fill="white" />
        </clipPath>
        <clipPath id="clip2_31_66">
            <rect width="92" height="18" fill="white" />
        </clipPath>
    </defs>
</svg>