<svg width="83" height="30" viewBox="0 0 83 30" fill="none" xmlns="http://www.w3.org/2000/svg">
<g clip-path="url(#clip0_31_31)">
<path d="M60.6288 15.2822V21.4727H63.165V15.6622C63.165 13.0737 66.688 13.0688 66.688 13.0688V10.5493C66.688 10.5493 65.7022 10.5938 64.9235 10.7684C62.7179 11.2658 60.6288 12.3553 60.6288 15.2822ZM41.5137 10.426C42.5015 10.426 43.736 10.9855 44.4071 11.9684C45.1028 11.0743 46.2475 10.4714 47.6607 10.4477C49.4568 10.425 51.6781 11.5421 51.6781 14.8964V21.4668H49.142V14.8954C49.142 13.7783 48.3337 12.974 47.1239 12.974C45.913 12.974 45.1048 13.7783 45.1048 14.8954V21.4658H42.5696V14.8954C42.5696 13.7783 41.7614 12.974 40.5505 12.974C39.3387 12.974 38.5087 13.7783 38.5087 14.8954V21.4658H35.8423V10.7576H38.5087V11.8342C39.2281 10.9618 40.2811 10.425 41.5156 10.425L41.5137 10.426ZM57.5104 10.8947V21.4747H54.9318V10.8947H57.5104ZM56.2206 9.21119C57.016 9.21119 57.6594 8.56974 57.6594 7.77829C57.6594 6.98685 57.015 6.3454 56.2206 6.3454C55.4262 6.3454 54.7808 6.98685 54.7808 7.77829C54.7808 8.56974 55.4242 9.21119 56.2206 9.21119ZM73.5742 10.4023C70.4518 10.4023 67.9206 12.9217 67.9206 16.0293C67.9206 19.1359 70.4518 21.6553 73.5742 21.6553C76.6966 21.6553 79.2278 19.1359 79.2278 16.0293C79.2278 12.9217 76.6966 10.4023 73.5742 10.4023ZM73.5742 19.126C71.8068 19.126 70.3729 17.7 70.3729 15.9414C70.3729 14.1819 71.8068 12.7559 73.5742 12.7559C75.3426 12.7559 76.7745 14.1819 76.7745 15.9414C76.7745 17.7 75.3426 19.126 73.5742 19.126Z" fill="white"/>
<path d="M2.60254 8.00824C2.60254 4.14376 5.73576 1.00955 9.60024 1.00955H23.5946C27.4601 1.00955 30.5923 4.14376 30.5923 8.00824V22.0056C30.5923 25.872 27.4591 29.0043 23.5946 29.0043H9.60024C5.73576 29.0043 2.60254 25.8701 2.60254 22.0056V8.00824ZM21.2124 6.34541H18.6713L20.7881 10.0678L16.1302 6.34541H13.5891L15.918 10.8938L11.0479 6.34541H8.50682L11.0479 12.1352L8.50682 23.7119H11.0479L15.918 11.3082L13.5891 23.7119H16.1302L20.7881 10.4813L18.6713 23.7119H21.2124L25.8703 9.23981L21.2124 6.34541Z" fill="white"/>
</g>
<defs>
<clipPath id="clip0_31_31">
<rect width="83" height="30" fill="white"/>
</clipPath>
</defs>
</svg>
