<svg width="82" height="30" viewBox="0 0 82 30" fill="none" xmlns="http://www.w3.org/2000/svg">
<g clip-path="url(#clip0_31_26)">
<path d="M79.0599 17.703C79.1359 17.61 79.2509 17.558 79.3699 17.562C79.4889 17.566 79.5989 17.626 79.6689 17.724L80.2409 18.516C80.3499 18.669 80.3479 18.876 80.2349 19.026C79.2409 20.329 77.4979 21.585 75.3949 21.705C73.7349 21.801 72.3649 21.165 71.6209 19.965C71.5539 19.853 71.4369 19.782 71.3079 19.777C71.1799 19.772 71.0579 19.832 70.9819 19.938C70.0979 21.137 69.0279 22.074 67.9139 22.139C65.9289 22.254 65.3679 20.908 65.8579 17.942C65.9079 17.647 65.6509 17.397 65.3759 17.471C64.9549 17.586 64.5179 17.627 64.0839 17.592C63.8979 17.574 63.7249 17.692 63.6699 17.873C62.9359 20.311 61.1869 22.579 58.9239 22.711C57.4789 22.794 55.3209 21.958 55.5369 18.464C55.5549 18.18 55.3029 17.956 55.0419 18.036C54.5769 18.182 54.0889 18.237 53.6039 18.198C53.4189 18.181 53.2459 18.299 53.1919 18.481C52.4579 20.918 50.7089 23.186 48.4459 23.317C47.0009 23.4 44.8429 22.564 45.0589 19.071C45.0769 18.786 44.8249 18.562 44.5649 18.642C44.0999 18.789 43.6119 18.844 43.1259 18.804C42.9409 18.787 42.7689 18.905 42.7149 19.087C41.9789 21.525 40.2309 23.792 37.9679 23.924C36.9399 23.984 35.5499 23.576 34.9119 22.079C34.8589 21.945 34.7389 21.852 34.5989 21.835C34.4579 21.818 34.3199 21.88 34.2379 21.998C33.3439 23.23 32.2549 24.202 31.1189 24.268C29.9539 24.335 29.3159 23.863 29.0389 23.021C28.9969 22.885 28.8839 22.782 28.7459 22.755C28.6069 22.728 28.4649 22.779 28.3739 22.889C27.5799 23.833 26.6729 24.525 25.7569 24.578C24.3439 24.661 23.5309 23.602 23.4639 22.321C23.3869 20.826 24.0269 19.075 24.7409 17.164C24.8399 16.898 24.6609 16.611 24.3899 16.599C23.9449 16.581 23.5019 16.533 23.0639 16.454C22.8619 16.416 22.6649 16.543 22.6129 16.745C21.7679 19.794 20.4739 22.783 19.3819 24.55C19.3259 24.644 19.2329 24.71 19.1269 24.732C19.0209 24.754 18.9109 24.729 18.8229 24.665L17.9889 24.044C17.8169 23.913 17.7729 23.669 17.8869 23.483C19.4649 20.929 20.8659 16.93 21.3489 13.972C21.3779 13.785 21.5299 13.644 21.7149 13.632L22.8239 13.567C23.0779 13.553 23.2779 13.792 23.2319 14.056L23.2269 14.084C23.2059 14.194 23.2299 14.308 23.2939 14.4C23.3579 14.492 23.4559 14.553 23.5649 14.57C24.5599 14.708 26.0459 14.725 27.0549 14.685C27.3389 14.674 27.5399 14.97 27.4359 15.248C26.6269 17.424 25.5429 20.438 25.6049 21.631C25.6329 22.17 25.8679 22.464 26.2829 22.44C27.0749 22.395 28.2939 20.785 29.2179 18.992C29.2349 18.96 29.2479 18.926 29.2549 18.89C29.5669 17.486 30.0279 15.921 30.4949 14.34L30.5239 14.242C30.5699 14.079 30.7109 13.962 30.8779 13.951L32.2059 13.874C32.4809 13.859 32.6859 14.138 32.6029 14.412L32.3979 15.089C31.2289 18.96 30.2479 22.211 31.5699 22.135C32.4339 22.085 33.6589 20.604 34.7119 18.495C34.7289 18.46 34.7419 18.423 34.7489 18.385C34.8019 18.109 34.8659 17.821 34.9449 17.52C35.5589 15.041 36.2559 12.586 36.9529 10.128C37.1679 9.36999 37.3839 8.60999 37.5959 7.84999C37.6409 7.68499 37.7839 7.56599 37.9519 7.55399L39.3159 7.47599C39.5929 7.45999 39.7979 7.74099 39.7109 8.01799C39.1519 9.79399 38.5999 11.572 38.0559 13.353C37.9429 13.726 38.3379 14.036 38.6499 13.82C39.1879 13.449 39.8109 13.203 40.4129 13.168C41.9479 13.079 42.9929 14.355 43.0919 16.277C43.0979 16.378 43.1039 16.487 43.1069 16.599C43.1129 16.812 43.2709 16.984 43.4719 17.001C44.2109 17.074 44.9459 16.833 45.5029 16.335C45.5619 16.282 45.6029 16.211 45.6209 16.134C46.1869 13.916 46.8109 11.713 47.4349 9.50899C47.6499 8.75499 47.8639 7.99999 48.0749 7.24299C48.1189 7.07699 48.2619 6.95799 48.4309 6.94699L49.7949 6.86799C50.0719 6.85199 50.2769 7.13399 50.1899 7.41099C49.6299 9.18699 49.0779 10.965 48.5349 12.746C48.4209 13.118 48.8169 13.428 49.1289 13.213C49.6669 12.842 50.2889 12.595 50.8909 12.56C52.4259 12.472 53.4709 13.748 53.5719 15.67C53.5769 15.77 53.5829 15.88 53.5859 15.992C53.5889 16.201 53.7459 16.374 53.9509 16.394C54.6729 16.459 55.4119 16.242 55.9819 15.728C56.0399 15.674 56.0809 15.603 56.1009 15.526C56.6659 13.308 57.2899 11.106 57.9149 8.90199C58.1289 8.14699 58.3419 7.39199 58.5539 6.63599C58.5989 6.46999 58.7409 6.35099 58.9099 6.33899L60.2729 6.25999C60.5509 6.24399 60.7559 6.52599 60.6689 6.80299C60.1089 8.57899 59.5579 10.357 59.0139 12.138C58.9009 12.51 59.2959 12.821 59.6079 12.606C60.1449 12.234 60.7679 11.987 61.3709 11.953C62.9059 11.864 63.9499 13.14 64.0509 15.062C64.0559 15.164 64.0619 15.273 64.0649 15.384C64.0679 15.593 64.2239 15.766 64.4289 15.787C65.1419 15.856 65.8519 15.634 66.4039 15.17C66.4669 15.116 66.5109 15.043 66.5309 14.961C67.1749 12.454 68.1209 9.16899 69.0329 6.02499C69.0779 5.86099 69.2199 5.74499 69.3869 5.73399L70.7379 5.65499C71.0129 5.63899 71.2179 5.91599 71.1349 6.19099C69.8799 10.401 68.8569 14.084 68.2929 16.256C67.5429 19.203 67.5129 20.053 68.3659 20.003C69.0819 19.962 70.0469 18.936 70.9559 17.384C70.9919 17.324 71.0119 17.255 71.0139 17.184C71.1339 14.078 73.0179 11.254 75.8189 11.092C77.6949 10.984 78.7229 12.415 78.7969 13.824C78.9369 16.513 76.3059 18.233 73.7549 18.073C73.6139 18.067 73.4799 18.136 73.4019 18.255C73.3239 18.375 73.3129 18.527 73.3729 18.657C73.7289 19.427 74.4789 19.856 75.7599 19.781C76.9779 19.712 78.2549 18.65 79.0599 17.703ZM36.8999 18.457C36.2959 20.908 37.0299 21.868 37.9809 21.812C39.5409 21.722 41.0499 18.834 40.9339 16.605C40.8829 15.631 40.3189 15.125 39.6609 15.162C38.5649 15.226 37.3849 16.501 36.8999 18.457ZM47.3789 17.851C46.7739 20.301 47.5089 21.261 48.4589 21.206C50.0199 21.115 51.5289 18.227 51.4129 15.998C51.3619 15.025 50.7979 14.518 50.1399 14.556C49.0439 14.619 47.8639 15.895 47.3789 17.851ZM57.8579 17.244C57.2529 19.695 57.9879 20.655 58.9379 20.6C60.4979 20.51 62.0079 17.621 61.8909 15.392C61.8409 14.418 61.2769 13.911 60.6179 13.95C59.5219 14.013 58.3419 15.289 57.8579 17.244ZM76.8039 14.04C76.7949 13.399 76.4039 12.934 75.7709 12.97H75.7699C74.5249 13.042 73.5509 14.404 73.2409 16.055C73.1919 16.317 73.3819 16.562 73.6359 16.556C75.2439 16.515 76.8559 15.444 76.8039 14.041V14.04ZM18.4469 15.233C18.2849 10.257 15.0819 6.97299 10.3489 7.14399C8.31689 7.23699 5.99089 8.01599 4.24189 9.40799C4.07589 9.54099 4.03489 9.77999 4.14689 9.96299L4.88889 11.184C4.94689 11.282 5.04489 11.35 5.15689 11.368C5.26889 11.387 5.38289 11.355 5.46889 11.28C6.80089 10.162 8.61789 9.42999 10.3669 9.35199C13.6099 9.21599 15.9939 11.314 16.1329 15.367C16.3059 20.085 13.1669 25.483 8.12189 25.775C7.94589 25.785 7.76189 25.789 7.57889 25.789C7.32089 25.789 7.13189 25.536 7.19589 25.273C8.19789 21.188 9.28689 17.126 10.4639 13.089C10.5439 12.814 10.3399 12.54 10.0659 12.556L8.58989 12.641C8.42289 12.653 8.28089 12.77 8.23489 12.934C7.12189 16.826 6.00889 21.046 5.00589 25.006C4.98089 25.115 4.91189 25.207 4.81689 25.261C4.72189 25.316 4.60789 25.327 4.50389 25.293C3.98089 25.113 3.50489 24.908 3.09789 24.669C3.00389 24.614 2.89089 24.602 2.78789 24.636C2.68489 24.669 2.60089 24.746 2.55589 24.846L1.92189 26.183C1.82689 26.38 1.89589 26.618 2.08189 26.73C3.51789 27.553 5.69889 28.024 7.89089 27.897C15.1049 27.481 18.6389 20.75 18.4469 15.235V15.233ZM32.6239 9.11899C31.7459 9.16999 30.9669 10.166 31.0219 11.216C31.0579 11.909 31.4979 12.37 32.1809 12.332C33.0589 12.281 33.8589 11.232 33.8059 10.233C33.7709 9.54099 33.2569 9.08199 32.6239 9.11899Z" fill="white"/>
</g>
<defs>
<clipPath id="clip0_31_26">
<rect width="82" height="30" fill="white"/>
</clipPath>
</defs>
</svg>
