<svg width="86" height="18" viewBox="0 0 86 18" fill="none" xmlns="http://www.w3.org/2000/svg">
    <g clip-path="url(#clip0_31_86)">
        <g clip-path="url(#clip1_31_86)">
            <mask id="mask0_31_86" style="mask-type:luminance" maskUnits="userSpaceOnUse" x="0"
                y="0" width="85" height="18">
                <path d="M0.600098 0H85.0001V18H0.600098V0Z" fill="white" />
            </mask>
            <g mask="url(#mask0_31_86)">
                <path
                    d="M35.7001 3.6V14.4H33.8301V5.92H33.8101L30.4601 14.4H29.2001L25.7701 5.92H25.7501V14.4H24.0201V3.6H26.7201L29.8201 11.6H29.8701L33.1501 3.6H35.7001ZM37.2601 4.42C37.2601 4.12 37.3601 3.87 37.5801 3.67C37.8101 3.47 38.0601 3.37 38.3601 3.37C38.6801 3.37 38.9601 3.47 39.1601 3.67C39.3601 3.87 39.4801 4.12 39.4801 4.42C39.4801 4.72 39.3801 4.97 39.1601 5.17C38.9301 5.37 38.6801 5.47 38.3601 5.47C38.0301 5.47 37.7801 5.37 37.5801 5.17C37.3801 4.95 37.2601 4.7 37.2601 4.42ZM39.2801 6.65V14.4H37.4601V6.65H39.2801ZM44.8101 13.07C45.0801 13.07 45.3801 13.03 45.7101 12.87C46.0301 12.75 46.3301 12.57 46.6101 12.37V14.07C46.3101 14.25 45.9801 14.37 45.6101 14.45C45.2301 14.53 44.8301 14.58 44.3801 14.58C43.8695 14.6056 43.3591 14.5242 42.8817 14.341C42.4044 14.1579 41.9706 13.877 41.6081 13.5164C41.2456 13.1558 40.9625 12.7235 40.7769 12.2471C40.5912 11.7707 40.5072 11.2608 40.5301 10.75C40.5301 9.5 40.9101 8.47 41.6301 7.67C42.3601 6.87 43.3801 6.47 44.7301 6.47C45.37 6.48308 46.0001 6.62953 46.5801 6.9V8.65C46.0855 8.24437 45.4696 8.01559 44.8301 8C44.1101 8 43.5301 8.22 43.0801 8.7C42.6301 9.17 42.4301 9.8 42.4301 10.6C42.4301 11.38 42.6601 12 43.0801 12.43C43.5101 12.85 44.0801 13.07 44.8101 13.07ZM51.7801 6.52C52.0175 6.51192 52.2545 6.54577 52.4801 6.62V8.47C52.3801 8.4 52.2601 8.32 52.0601 8.27C51.8601 8.22 51.6601 8.17 51.3801 8.17C50.9301 8.17 50.5601 8.37 50.2601 8.75C49.9601 9.12 49.7801 9.7 49.7801 10.5V14.4H47.9601V6.65H49.7801V7.87H49.8101C49.9801 7.45 50.2301 7.12 50.5601 6.87C50.9236 6.63601 51.3479 6.51428 51.7801 6.52ZM52.5801 10.65C52.5801 9.37 52.9601 8.35 53.6601 7.6C54.0545 7.21394 54.5248 6.91413 55.0413 6.71959C55.5578 6.52506 56.109 6.44006 56.6601 6.47C57.8601 6.47 58.8101 6.82 59.4801 7.55C60.1601 8.27 60.5101 9.25 60.5101 10.47C60.5101 11.72 60.1301 12.72 59.4301 13.47C59.0444 13.8537 58.5827 14.1524 58.0746 14.3471C57.5666 14.5417 57.0234 14.6278 56.4801 14.6C55.2801 14.6 54.3301 14.25 53.6301 13.55C53.2723 13.1598 52.9954 12.7027 52.8151 12.205C52.6349 11.7073 52.555 11.1788 52.5801 10.65ZM54.4801 10.57C54.4801 11.37 54.6601 12 55.0301 12.43C55.23 12.6465 55.4754 12.8161 55.7485 12.9268C56.0216 13.0374 56.3159 13.0863 56.6101 13.07C57.2601 13.07 57.7801 12.87 58.1301 12.43C58.4801 12 58.6601 11.38 58.6601 10.53C58.6601 9.7 58.4801 9.07 58.1301 8.63C57.9461 8.4139 57.7156 8.24226 57.4558 8.12796C57.196 8.01365 56.9137 7.95965 56.6301 7.97C55.9601 7.97 55.4601 8.2 55.0801 8.65C54.6601 9.12 54.4801 9.75 54.4801 10.57ZM63.2301 8.7C63.2301 8.95 63.3101 9.17 63.4801 9.32C63.6601 9.47 64.0101 9.65 64.5801 9.87C65.3101 10.17 65.8301 10.5 66.1101 10.85C66.4101 11.23 66.5601 11.65 66.5601 12.18C66.5601 12.9 66.2801 13.48 65.7101 13.93C65.1601 14.38 64.3801 14.57 63.4301 14.57C62.7205 14.5552 62.0193 14.413 61.3601 14.15V12.35C61.6801 12.57 62.0601 12.78 62.4301 12.9C62.8101 13.03 63.1601 13.1 63.4801 13.1C63.8801 13.1 64.2101 13.05 64.3801 12.93C64.5801 12.8 64.6801 12.63 64.6801 12.35C64.6801 12.1 64.5801 11.9 64.3801 11.7C64.1801 11.53 63.7801 11.32 63.2301 11.1C62.6844 10.9078 62.196 10.581 61.8101 10.15C61.5301 9.8 61.3801 9.35 61.3801 8.8C61.3801 8.1 61.6601 7.52 62.2101 7.07C62.826 6.60148 63.587 6.36433 64.3601 6.4C64.6301 6.4 64.9301 6.42 65.2601 6.5C65.5801 6.57 65.8801 6.65 66.1101 6.72V8.5C65.8601 8.35 65.5801 8.2 65.2601 8.07C64.9565 7.95566 64.6345 7.89804 64.3101 7.9C63.9601 7.9 63.6801 7.97 63.5101 8.1C63.4233 8.17423 63.3534 8.26618 63.3051 8.36967C63.2568 8.47317 63.2312 8.5858 63.2301 8.7ZM67.3301 10.65C67.3301 9.37 67.7101 8.35 68.4101 7.6C68.8045 7.21394 69.2748 6.91413 69.7913 6.71959C70.3078 6.52506 70.859 6.44006 71.4101 6.47C72.6101 6.47 73.5601 6.82 74.2301 7.55C74.9101 8.27 75.2601 9.25 75.2601 10.47C75.2601 11.72 74.8801 12.72 74.1801 13.47C73.7944 13.8537 73.3327 14.1524 72.8246 14.3471C72.3166 14.5417 71.7734 14.6278 71.2301 14.6C70.0301 14.6 69.0801 14.25 68.3801 13.55C67.6678 12.7557 67.2914 11.7162 67.3301 10.65ZM69.2301 10.57C69.2301 11.37 69.4101 12 69.7801 12.43C69.98 12.6465 70.2254 12.8161 70.4985 12.9268C70.7716 13.0374 71.0659 13.0863 71.3601 13.07C72.0101 13.07 72.5301 12.87 72.8801 12.43C73.2301 12 73.4101 11.38 73.4101 10.53C73.4101 9.7 73.2301 9.07 72.8801 8.63C72.6961 8.4139 72.4656 8.24226 72.2058 8.12796C71.946 8.01365 71.6637 7.95965 71.3801 7.97C70.7101 7.97 70.2101 8.2 69.8301 8.65C69.4301 9.12 69.2301 9.75 69.2301 10.57ZM81.3301 8.15H78.6101V14.4H76.7601V8.15H75.4601V6.65H76.7601V5.57C76.7601 4.77 77.0301 4.1 77.5601 3.57C78.0801 3.05 78.7601 2.8 79.5801 2.8L80.1801 2.82C80.3601 2.82 80.5101 2.87 80.6301 2.92V4.5C80.526 4.45068 80.4191 4.40727 80.3101 4.37C80.1384 4.31819 79.9594 4.29455 79.7801 4.3C79.4101 4.3 79.1101 4.42 78.9101 4.65C78.7101 4.87 78.6101 5.25 78.6101 5.7V6.62H81.3301V4.87L83.1601 4.32V6.62H85.0001V8.12H83.1501V11.75C83.1501 12.22 83.2501 12.55 83.4001 12.75C83.5701 12.95 83.8501 13.05 84.2201 13.05C84.3201 13.05 84.4501 13.02 84.6001 12.97C84.7501 12.93 84.8701 12.87 84.9701 12.8V14.3C84.5267 14.4578 84.0606 14.5422 83.5901 14.55C82.8201 14.55 82.2501 14.35 81.8701 13.95C81.5001 13.55 81.3001 12.93 81.3001 12.1L81.3201 8.15H81.3301ZM9.1601 0H0.600098V8.55H9.1501V0H9.1601ZM18.6001 0H10.0601V8.55H18.6101V0H18.6001ZM9.1601 9.45H0.600098V18H9.1501V9.45H9.1601ZM18.6001 9.45H10.0601V18H18.6101V9.45H18.6001Z"
                    fill="white" />
            </g>
        </g>
    </g>
    <defs>
        <clipPath id="clip0_31_86">
            <rect width="86" height="18" fill="white" />
        </clipPath>
        <clipPath id="clip1_31_86">
            <rect width="86" height="18" fill="white" />
        </clipPath>
    </defs>
</svg>