<svg width="150" height="45" viewBox="0 0 150 45" fill="none" xmlns="http://www.w3.org/2000/svg">
<path d="M74.5958 17.0833C70.9092 17.0833 68.2508 19.5208 68.2508 23.1775C68.2508 26.8333 71.2425 29.2708 74.9292 29.2708C77.1567 29.2708 79.1208 28.3775 80.3358 26.8708L77.7808 25.3742C77.1058 26.1225 76.0808 26.5592 74.9292 26.5592C73.33 26.5592 71.9708 25.7125 71.4667 24.3592H80.8233C80.8967 23.9792 80.94 23.5867 80.94 23.1733C80.94 19.5208 78.2817 17.0833 74.5958 17.0833ZM71.4367 21.9917C71.8533 20.6417 72.9958 19.7917 74.5925 19.7917C76.1917 19.7917 77.3342 20.6417 77.7475 21.9917H71.4367ZM110.552 17.0833C106.865 17.0833 104.208 19.5208 104.208 23.1775C104.208 26.8333 107.199 29.2708 110.886 29.2708C113.113 29.2708 115.076 28.3775 116.292 26.8708L113.737 25.3742C113.062 26.1225 112.037 26.5592 110.886 26.5592C109.286 26.5592 107.927 25.7125 107.422 24.3592H116.779C116.852 23.9792 116.896 23.5867 116.896 23.1733C116.896 19.5208 114.238 17.0833 110.552 17.0833ZM107.396 21.9917C107.813 20.6417 108.956 19.7917 110.552 19.7917C112.151 19.7917 113.293 20.6417 113.708 21.9917H107.396ZM94.3633 23.1767C94.3633 25.2083 95.6725 26.5625 97.7025 26.5625C99.0783 26.5625 100.11 25.9292 100.641 24.8967L103.206 26.3967C102.143 28.1908 100.153 29.2708 97.7025 29.2708C94.0125 29.2708 91.3583 26.8333 91.3583 23.1767C91.3583 19.5208 94.0158 17.0833 97.7025 17.0833C100.153 17.0833 102.14 18.1633 103.206 19.9583L100.641 21.4575C100.11 20.4242 99.0783 19.7917 97.7025 19.7917C95.6758 19.7917 94.3633 21.145 94.3633 23.1767ZM121.905 13.36V28.9325H118.899V13.3583H121.905V13.36ZM39.8383 11.6667L52.1767 33.3333H27.5L39.8383 11.6667ZM70.685 13.3592L61.4325 29.6092L52.18 13.3592H55.6492L61.4325 23.5158L67.2158 13.3592H70.685ZM90.3567 17.4217V20.7025C90.0102 20.5957 89.6501 20.5396 89.2875 20.5358C87.3475 20.5358 85.9483 21.8908 85.9483 23.9217V28.9325H82.9433V17.4217H85.9483V20.5367C85.9483 18.8167 87.9225 17.4217 90.3567 17.4217Z" fill="#F7F8F8"/>
</svg>
