<svg width="150" height="45" viewBox="0 0 150 45" fill="none" xmlns="http://www.w3.org/2000/svg">
<path d="M64.6083 19.8483C64.5147 19.905 64.4032 19.9246 64.2958 19.9035C64.1884 19.8824 64.0928 19.822 64.0275 19.7342C63.7074 19.275 63.2779 18.9028 62.7778 18.6512C62.2777 18.3997 61.7229 18.2767 61.1633 18.2933C58.9808 18.2933 57.6417 20.0175 57.6417 22.4783C57.6417 24.94 59.005 26.6967 61.1875 26.6967C61.7544 26.71 62.3153 26.5788 62.8175 26.3153C63.3196 26.0518 63.7463 25.6649 64.0575 25.1908C64.1195 25.1016 64.2127 25.0388 64.3187 25.015C64.4248 24.9913 64.5359 25.0082 64.63 25.0625L65.6667 25.6625C65.7232 25.691 65.773 25.7314 65.8125 25.7809C65.852 25.8304 65.8804 25.8879 65.8957 25.9493C65.9109 26.0108 65.9127 26.0749 65.901 26.1371C65.8892 26.1994 65.8642 26.2583 65.8275 26.31C65.3205 27.0688 64.6291 27.6865 63.8181 28.1051C63.0071 28.5237 62.1031 28.7296 61.1908 28.7033C57.7017 28.7033 55.3367 26.1767 55.3367 22.4925C55.3367 18.8083 57.7017 16.3142 61.1383 16.3142C62.0354 16.2894 62.925 16.4844 63.7295 16.8821C64.534 17.2798 65.229 17.8681 65.7542 18.5958C65.7902 18.6448 65.8159 18.7007 65.8294 18.7601C65.8429 18.8194 65.8441 18.8809 65.8328 18.9407C65.8216 19.0005 65.7981 19.0573 65.764 19.1077C65.7298 19.158 65.6856 19.2008 65.6342 19.2333L64.6083 19.8483ZM72.2358 28.035V27.535C71.69 28.2367 70.9292 28.6725 69.7042 28.6725C67.8925 28.6725 66.635 27.6842 66.635 25.95C66.635 23.7908 68.5642 23.42 69.7533 23.2542C71.03 23.0692 72.1183 22.9817 72.1183 22.1483C72.1183 21.4108 71.2642 21.2117 70.5417 21.2117C69.7119 21.2254 68.8967 21.4313 68.16 21.8133C68.1089 21.841 68.0527 21.8582 67.9949 21.8637C67.937 21.8692 67.8786 21.8631 67.8232 21.8456C67.7677 21.8281 67.7164 21.7996 67.6722 21.7619C67.628 21.7241 67.5918 21.6778 67.5658 21.6258L67.1917 20.8467C67.142 20.7458 67.133 20.6297 67.1665 20.5224C67.2 20.415 67.2734 20.3247 67.3717 20.27C68.4033 19.7216 69.5533 19.4336 70.7217 19.4308C72.8 19.4308 74.2675 20.2833 74.2675 22.345V28.035C74.2676 28.0923 74.2564 28.149 74.2346 28.2019C74.2127 28.2548 74.1806 28.3029 74.1401 28.3434C74.0996 28.3839 74.0515 28.416 73.9986 28.4379C73.9457 28.4597 73.8889 28.4709 73.8317 28.4708H72.6908C72.632 28.4733 72.5733 28.4639 72.5183 28.4431C72.4632 28.4223 72.4129 28.3906 72.3704 28.3499C72.3279 28.3092 72.2941 28.2603 72.271 28.2062C72.2479 28.1521 72.2359 28.0938 72.2358 28.035ZM72.1183 24.1008C71.7175 24.4033 70.9783 24.5042 70.19 24.645C69.4008 24.7867 68.7467 24.9967 68.7467 25.8517C68.7467 26.6383 69.3167 27.0058 70.1408 27.0058C71.1633 27.0058 72.1183 26.4367 72.1183 25.1142V24.1008ZM76.1417 26.2167C76.2154 26.131 76.3194 26.0772 76.4319 26.0666C76.5444 26.0561 76.6567 26.0895 76.745 26.16C77.4747 26.7097 78.3683 26.9974 79.2817 26.9767C80.2233 26.9767 80.9183 26.675 80.9183 25.94C80.9183 25.27 80.28 25.1367 78.7358 24.8667C77.0992 24.5942 75.5333 24.05 75.5333 22.1875C75.5333 20.2458 77.2117 19.4267 79.1233 19.4267C80.3221 19.409 81.4924 19.7923 82.4483 20.5158C82.4952 20.5521 82.5341 20.5975 82.5627 20.6494C82.5913 20.7013 82.6089 20.7585 82.6145 20.8174C82.6202 20.8764 82.6136 20.9359 82.5954 20.9922C82.5771 21.0486 82.5475 21.1006 82.5083 21.145L81.9633 21.7842C81.891 21.8701 81.7885 21.9251 81.6769 21.9378C81.5653 21.9505 81.4531 21.92 81.3633 21.8525C80.6907 21.3614 79.877 21.1014 79.0442 21.1117C78.24 21.1117 77.5358 21.3458 77.5358 21.9808C77.5358 22.6858 78.5233 22.8192 79.5133 22.9883C81.6275 23.355 82.97 23.9575 82.97 25.7108C82.97 27.5517 81.4942 28.69 79.1508 28.69C77.8703 28.729 76.6162 28.3206 75.6042 27.535C75.5591 27.4978 75.5218 27.4521 75.4945 27.4004C75.4672 27.3487 75.4504 27.2921 75.4451 27.2339C75.4398 27.1757 75.4462 27.117 75.4638 27.0613C75.4813 27.0055 75.5098 26.9538 75.5475 26.9092L76.1417 26.2175V26.2167ZM84.2658 28.0367V16.9542C84.2658 16.8969 84.2771 16.8401 84.2991 16.7872C84.321 16.7343 84.3532 16.6862 84.3938 16.6457C84.4343 16.6052 84.4825 16.5731 84.5355 16.5513C84.5884 16.5294 84.6452 16.5182 84.7025 16.5183H85.96C86.0173 16.5182 86.0741 16.5294 86.127 16.5513C86.18 16.5731 86.2282 16.6052 86.2687 16.6457C86.3093 16.6862 86.3415 16.7343 86.3634 16.7872C86.3854 16.8401 86.3967 16.8969 86.3967 16.9542V20.7392C86.7105 20.3222 87.1192 19.9862 87.5889 19.7589C88.0587 19.5317 88.5758 19.4198 89.0975 19.4325C90.9575 19.4325 92.0483 20.755 92.0483 22.645V28.0367C92.0481 28.1521 92.0021 28.2628 91.9204 28.3443C91.8387 28.4259 91.728 28.4717 91.6125 28.4717H90.355C90.2395 28.4717 90.1287 28.4259 90.0468 28.3444C89.965 28.2628 89.9188 28.1522 89.9183 28.0367V23.135C89.9183 22.1958 89.615 21.3433 88.4092 21.3433C87.2667 21.3433 86.3967 22.1467 86.3967 23.4867V28.0392C86.3965 28.1548 86.3503 28.2657 86.2685 28.3474C86.1866 28.4291 86.0757 28.475 85.96 28.475H84.7025C84.6449 28.4754 84.5878 28.4644 84.5345 28.4425C84.4812 28.4206 84.4328 28.3883 84.3921 28.3475C84.3515 28.3067 84.3194 28.2582 84.2977 28.2048C84.276 28.1514 84.2652 28.0943 84.2658 28.0367ZM105.887 28.1792L104.982 25.5108H100.403L99.4958 28.1792C99.4661 28.2649 99.4104 28.3393 99.3365 28.392C99.2626 28.4447 99.1741 28.4732 99.0833 28.4733H97.6075C97.5017 28.4727 97.3998 28.4339 97.3203 28.3641C97.2408 28.2943 97.1893 28.1981 97.175 28.0933C97.1663 28.0238 97.1746 27.9531 97.1992 27.8875L101.32 16.8033C101.354 16.7223 101.411 16.6532 101.484 16.6047C101.557 16.5561 101.642 16.5304 101.73 16.5308H103.746C103.835 16.5312 103.923 16.5587 103.996 16.6097C104.07 16.6608 104.126 16.7329 104.158 16.8167L108.263 27.8983C108.301 27.9979 108.3 28.1079 108.261 28.2069C108.223 28.306 108.148 28.3873 108.053 28.435C107.991 28.4675 107.921 28.4843 107.851 28.4842H106.293C106.202 28.482 106.114 28.4515 106.041 28.3968C105.968 28.3421 105.914 28.266 105.887 28.1792ZM102.717 18.4617L100.954 23.6508H104.411L102.717 18.4617ZM111.424 20.0683V20.755C111.735 20.3269 112.147 19.9822 112.622 19.7514C113.098 19.5205 113.624 19.4107 114.153 19.4317C116.567 19.4317 118.127 21.425 118.127 24.0358C118.127 26.6475 116.567 28.665 114.153 28.665C113.622 28.6851 113.095 28.5731 112.619 28.3392C112.143 28.1053 111.732 27.7568 111.424 27.325V30.9383C111.424 30.9956 111.413 31.0522 111.391 31.1051C111.369 31.158 111.337 31.206 111.297 31.2465C111.256 31.287 111.208 31.3191 111.155 31.341C111.102 31.3629 111.046 31.3742 110.988 31.3742H109.731C109.674 31.3743 109.617 31.3631 109.564 31.3412C109.511 31.3194 109.463 31.2873 109.422 31.2468C109.382 31.2063 109.349 31.1582 109.327 31.1053C109.305 31.0524 109.294 30.9956 109.294 30.9383V20.0467C109.294 19.9894 109.305 19.9326 109.327 19.8797C109.349 19.8268 109.382 19.7787 109.422 19.7382C109.463 19.6977 109.511 19.6656 109.564 19.6438C109.617 19.6219 109.674 19.6107 109.731 19.6108H110.988C111.077 19.6104 111.165 19.6374 111.238 19.6882C111.311 19.7391 111.367 19.8113 111.398 19.895C111.418 19.9506 111.428 20.0091 111.424 20.0683ZM113.705 26.8158C115.181 26.8158 115.888 25.5575 115.888 24.0358C115.888 22.5142 115.168 21.2883 113.705 21.2883C112.243 21.2883 111.424 22.5108 111.424 24.0358C111.424 25.5608 112.203 26.8158 113.705 26.8158ZM121.573 20.0683V20.755C121.883 20.3265 122.294 19.9815 122.77 19.7506C123.246 19.5197 123.772 19.4101 124.301 19.4317C126.718 19.4317 128.278 21.4242 128.278 24.0358C128.278 26.6475 126.718 28.665 124.301 28.665C123.771 28.6846 123.244 28.5725 122.768 28.3386C122.292 28.1048 121.881 27.7565 121.573 27.325V30.9383C121.573 30.9956 121.561 31.0523 121.54 31.1052C121.518 31.1582 121.486 31.2063 121.445 31.2468C121.405 31.2873 121.357 31.3194 121.304 31.3412C121.251 31.3631 121.194 31.3743 121.137 31.3742H119.879C119.822 31.3743 119.765 31.3631 119.712 31.3412C119.659 31.3194 119.611 31.2873 119.57 31.2468C119.53 31.2063 119.498 31.1582 119.476 31.1053C119.454 31.0524 119.443 30.9956 119.443 30.9383V20.0467C119.443 19.9894 119.454 19.9326 119.476 19.8797C119.498 19.8268 119.53 19.7787 119.57 19.7382C119.611 19.6977 119.659 19.6656 119.712 19.6438C119.765 19.6219 119.822 19.6107 119.879 19.6108H121.137C121.196 19.6104 121.255 19.6221 121.309 19.6453C121.364 19.6685 121.413 19.7026 121.454 19.7455C121.495 19.7885 121.526 19.8394 121.547 19.8951C121.567 19.9507 121.576 20.0091 121.573 20.0683ZM123.856 26.8158C125.332 26.8158 126.038 25.5575 126.038 24.0358C126.038 22.5142 125.318 21.2883 123.856 21.2883C122.394 21.2883 121.573 22.5108 121.573 24.0358C121.573 25.5608 122.361 26.8158 123.856 26.8158Z" fill="#F7F8F8"/>
<path fill-rule="evenodd" clip-rule="evenodd" d="M27.8883 10.8333C24.9125 10.8333 22.5 13.2417 22.5 16.2117V28.7883C22.5 31.7592 24.9125 34.1667 27.8883 34.1667H40.3633C43.3383 34.1667 45.7508 31.7583 45.7508 28.7883V16.2117C45.7508 13.2408 43.3392 10.8333 40.3633 10.8333H27.8883ZM37.9033 19.5117C37.0152 18.7618 35.8907 18.3498 34.7283 18.3483C33.77 18.3483 32.8125 18.665 32.8125 19.5442C32.8125 20.3467 33.6658 20.6608 34.7158 21.0467L35.0267 21.1617C37.1042 21.8617 38.815 22.7192 38.815 24.7517C38.815 26.9592 37.0983 28.4667 34.29 28.6392L34.0358 29.8225C34.0124 29.9297 33.9528 30.0256 33.8671 30.0942C33.7814 30.1627 33.6747 30.1998 33.565 30.1992H31.8C31.7288 30.1972 31.659 30.1797 31.5953 30.1478C31.5316 30.116 31.4757 30.0706 31.4314 30.0149C31.3871 29.9592 31.3555 29.8944 31.3388 29.8252C31.3222 29.756 31.3209 29.6839 31.335 29.6142L31.6083 28.3658C30.5485 28.0963 29.5739 27.5634 28.775 26.8167C28.7293 26.7726 28.693 26.7198 28.6682 26.6614C28.6434 26.6029 28.6306 26.5401 28.6306 26.4767C28.6306 26.4132 28.6434 26.3504 28.6682 26.292C28.693 26.2336 28.7293 26.1807 28.775 26.1367L29.755 25.1808C29.8441 25.0932 29.9642 25.0441 30.0892 25.0441C30.2142 25.0441 30.3342 25.0932 30.4233 25.1808C31.3214 26.0358 32.5194 26.5038 33.7592 26.4842C35.0375 26.4842 35.905 25.9425 35.905 25.085C35.905 24.31 35.1942 24.05 33.8442 23.5567C33.7008 23.5042 33.55 23.45 33.3925 23.3908C31.6575 22.7742 30.015 21.8908 30.015 19.84C30.015 17.465 32.0025 16.3067 34.345 16.1925L34.5917 14.9875C34.6155 14.8812 34.675 14.7862 34.7601 14.7181C34.8452 14.6501 34.951 14.6131 35.06 14.6133H36.8192C36.8898 14.6132 36.9597 14.6287 37.0236 14.6589C37.0875 14.689 37.1439 14.733 37.1887 14.7877C37.2336 14.8423 37.2657 14.9062 37.2828 14.9748C37.2998 15.0434 37.3015 15.1149 37.2875 15.1842L37.0142 16.5308C37.9096 16.8234 38.7395 17.2876 39.4575 17.8975C39.5065 17.9394 39.5462 17.9911 39.5742 18.0492C39.6023 18.1072 39.6179 18.1705 39.6203 18.2349C39.6226 18.2994 39.6116 18.3636 39.5879 18.4236C39.5642 18.4835 39.5283 18.5379 39.4825 18.5833L38.5683 19.4983C38.4801 19.5849 38.3621 19.6345 38.2385 19.637C38.1149 19.6394 37.995 19.5946 37.9033 19.5117Z" fill="#F7F8F8"/>
</svg>
