<svg width="98" height="22" viewBox="0 0 98 22" fill="none" xmlns="http://www.w3.org/2000/svg">
<g clip-path="url(#clip0_31_12)">
<g clip-path="url(#clip1_31_12)">
<path d="M12.429 1.76269e-07H9.477C4.245 0.00600018 0.005 4.258 0 9.504C0.006 14.749 4.246 18.999 9.477 19.005H12.44C17.673 19 21.914 14.749 21.92 9.504C21.915 4.253 17.667 -0.000999824 12.429 1.76269e-07ZM1.173 9.504C1.173 4.909 4.888 1.185 9.471 1.185C9.934 1.185 10.397 1.223 10.854 1.3C14.853 1.963 17.781 5.436 17.766 9.499C17.762 12.107 15.884 14.333 13.319 14.769C14.997 13.541 15.989 11.582 15.988 9.499C15.993 6.518 13.981 3.913 11.101 3.172C10.569 3.034 10.021 2.965 9.471 2.966C5.878 2.977 2.971 5.898 2.967 9.499C2.958 12.763 4.625 15.801 7.378 17.541C3.733 16.582 1.188 13.282 1.18 9.504H1.173ZM10.949 4.371C13.23 5.03 14.801 7.123 14.799 9.504C14.8 11.883 13.229 13.976 10.949 14.634C8.668 13.976 7.097 11.883 7.098 9.504C7.096 7.123 8.667 5.03 10.949 4.371ZM12.429 17.818H12.395C11.944 17.816 11.494 17.777 11.05 17.703C7.156 17.056 4.264 13.737 4.147 9.782V9.504C4.15 6.895 6.028 4.669 8.594 4.234C6.915 5.462 5.922 7.42 5.923 9.504C5.919 12.484 7.93 15.087 10.81 15.828C11.342 15.967 11.89 16.037 12.44 16.035C16.037 16.031 18.952 13.11 18.957 9.504C18.967 6.24 17.3 3.201 14.546 1.461C18.191 2.422 20.732 5.725 20.733 9.504C20.732 11.71 19.856 13.826 18.299 15.385C16.741 16.945 14.63 17.82 12.429 17.818Z" fill="white"/>
<path d="M40.895 17.348H27.396V15.821C29.06 15.54 29.388 14.954 29.388 14.389V4.82701C29.388 3.74801 29.06 3.30101 27.396 3.18401V1.65701H35.88V3.18401C34.216 3.30101 33.889 3.74801 33.889 4.82701V14.945C33.889 15.507 34.052 15.907 35.459 15.907H36.981C37.847 15.907 38.879 15.484 39.605 13.182H41.128L40.895 17.348ZM42.113 11.592C42.113 7.78801 44.855 4.96901 48.744 4.96901C52.846 4.96901 55.212 7.74101 55.212 11.122C55.212 14.906 52.424 17.679 48.605 17.679C44.434 17.679 42.113 14.976 42.113 11.592ZM50.807 12.462C50.807 8.72801 49.518 6.49501 48.253 6.49501C47.058 6.49501 46.566 8.00001 46.566 10.16C46.566 13.967 47.878 16.152 49.119 16.152C50.294 16.152 50.807 14.67 50.807 12.462ZM56.665 11.592C56.665 7.78801 59.408 4.96901 63.297 4.96901C67.398 4.96901 69.764 7.74101 69.764 11.122C69.764 14.906 66.977 17.679 63.155 17.679C58.986 17.679 56.665 14.976 56.665 11.592ZM65.36 12.462C65.36 8.72801 64.07 6.49501 62.805 6.49501C61.61 6.49501 61.117 8.00001 61.117 10.16C61.117 13.967 62.431 16.152 63.671 16.152C64.844 16.152 65.36 14.67 65.36 12.462ZM84.23 10.936C84.23 15.046 81.747 17.681 78.161 17.681C77.438 17.694 76.719 17.558 76.051 17.281V19.019C76.051 19.889 76.403 20.242 77.997 20.476V22.011H70.334V20.485C71.552 20.203 71.693 19.898 71.693 19.028V8.68501C71.693 8.07401 71.482 7.72101 70.709 7.37001L70.334 7.20601V5.98301L75.113 4.97301H76.051V6.47701C76.653 5.52001 77.712 4.95001 78.84 4.97301C82.565 4.96901 84.23 7.84701 84.23 10.936ZM79.731 11.781C79.731 9.33701 79.058 7.22401 77.434 7.22401C76.73 7.22401 76.613 7.17701 76.051 7.59901V12.321C76.051 15.118 76.499 15.941 77.715 15.941C78.84 15.941 79.731 14.553 79.731 11.781ZM95.555 6.35401L93.4 9.31501C92.368 7.24601 91.381 6.37901 90.213 6.37901C89.509 6.37901 88.596 6.80101 88.596 7.53001C88.596 10.003 95.929 8.39801 95.79 13.85C95.719 15.821 93.821 17.672 90.54 17.672C87.681 17.672 85.293 16.237 84.709 15.72L87.241 13.067C88.648 15.275 89.796 16.262 90.919 16.262C91.505 16.262 92.536 16.004 92.561 14.852C92.561 12.197 85.319 14.335 85.342 9.00701C85.342 6.49301 87.428 4.96001 90.756 4.96001C93.375 4.96901 95.064 5.88401 95.555 6.35401Z" fill="white"/>
</g>
</g>
<defs>
<clipPath id="clip0_31_12">
<rect width="98" height="22" fill="white"/>
</clipPath>
<clipPath id="clip1_31_12">
<rect width="98" height="22" fill="white"/>
</clipPath>
</defs>
</svg>
