<svg width="79" height="20" viewBox="0 0 79 20" fill="none" xmlns="http://www.w3.org/2000/svg">
    <g clip-path="url(#clip0_31_126)">
        <g clip-path="url(#clip1_31_126)">
            <g clip-path="url(#clip2_31_126)">
                <mask id="mask0_31_126" style="mask-type:luminance" maskUnits="userSpaceOnUse" x="0"
                    y="0" width="79" height="20">
                    <path d="M0.390137 0H78.8201V20H0.390137V0Z" fill="white" />
                </mask>
                <g mask="url(#mask0_31_126)">
                    <path
                        d="M25.5001 15.67L26.4801 13.4C27.6037 14.1981 28.952 14.6183 30.3301 14.6C31.3501 14.6 32.0001 14.2 32.0001 13.6C31.9801 11.94 25.8701 13.24 25.8201 9.06003C25.8101 6.93003 27.7001 5.29003 30.3701 5.29003C31.9141 5.23475 33.433 5.69183 34.6901 6.59003L33.7701 8.89003C32.7128 8.19499 31.4847 7.80407 30.2201 7.76003C29.3801 7.76003 28.8301 8.16003 28.8301 8.66003C28.8501 10.3 35.0001 9.40003 35.0701 13.4C35.0701 15.57 33.2201 17.1 30.5701 17.1C28.7757 17.162 27.0067 16.662 25.5101 15.67H25.5001ZM62.9701 12.58C62.664 13.1229 62.1867 13.5491 61.6127 13.792C61.0388 14.0349 60.4005 14.0809 59.7977 13.9226C59.1949 13.7644 58.6614 13.4109 58.2808 12.9174C57.9001 12.424 57.6936 11.8183 57.6936 11.195C57.6936 10.5718 57.9001 9.9661 58.2808 9.47262C58.6614 8.97914 59.1949 8.62566 59.7977 8.46743C60.4005 8.30919 61.0388 8.35512 61.6127 8.59802C62.1867 8.84093 62.664 9.26713 62.9701 9.81003L65.6701 8.31003C65.0327 7.17047 64.0354 6.27452 62.8343 5.76253C61.6331 5.25055 60.2961 5.15146 59.0326 5.48078C57.7692 5.8101 56.6506 6.54923 55.8523 7.58239C55.0539 8.61554 54.6208 9.88434 54.6208 11.19C54.6208 12.4957 55.0539 13.7645 55.8523 14.7977C56.6506 15.8308 57.7692 16.57 59.0326 16.8993C60.2961 17.2286 61.6331 17.1295 62.8343 16.6175C64.0354 16.1055 65.0327 15.2096 65.6701 14.07L62.9701 12.58ZM36.4201 0.400028H39.7901V16.9H36.4201V0.380028V0.400028ZM66.9901 0.400028V16.9H70.3601V11.95L74.3601 16.89H78.6701L73.5901 11.02L78.2901 5.54003H74.1701L70.3601 10.09V0.390028H66.9901V0.400028ZM49.8001 12.61C49.5146 13.0455 49.124 13.402 48.6643 13.6467C48.2047 13.8914 47.6908 14.0163 47.1701 14.01C46.7863 14.0329 46.4019 13.9771 46.0405 13.846C45.6791 13.7148 45.3483 13.5112 45.0685 13.2476C44.7886 12.9839 44.5657 12.6658 44.4133 12.3129C44.2609 11.9599 44.1822 11.5795 44.1822 11.195C44.1822 10.8106 44.2609 10.4302 44.4133 10.0772C44.5657 9.72422 44.7886 9.40614 45.0685 9.1425C45.3483 8.87886 45.6791 8.67522 46.0405 8.5441C46.4019 8.41298 46.7863 8.35714 47.1701 8.38003C47.6954 8.37908 48.2124 8.51165 48.6724 8.76528C49.1324 9.01891 49.5205 9.3853 49.8001 9.83003V12.61ZM49.8001 5.53003V6.87003C49.2401 5.94003 47.8701 5.29003 46.4401 5.29003C43.4801 5.29003 41.1501 7.91003 41.1501 11.19C41.1501 14.46 43.4801 17.1 46.4501 17.1C47.8701 17.1 49.2501 16.46 49.8001 15.53V16.87H53.1701V5.53003H49.8001ZM4.67009 12.6C4.67009 13.0114 4.5481 13.4136 4.31955 13.7556C4.091 14.0977 3.76614 14.3643 3.38607 14.5217C3.006 14.6791 2.58779 14.7203 2.1843 14.6401C1.78082 14.5598 1.4102 14.3617 1.11931 14.0708C0.828417 13.7799 0.630316 13.4093 0.550059 13.0058C0.469802 12.6023 0.510993 12.1841 0.668423 11.804C0.825853 11.424 1.09245 11.0991 1.43451 10.8706C1.77656 10.642 2.17871 10.52 2.59009 10.52H4.67009V12.6ZM5.71009 12.6C5.71009 12.0484 5.92923 11.5193 6.31931 11.1292C6.70939 10.7392 7.23844 10.52 7.79009 10.52C8.34174 10.52 8.8708 10.7392 9.26087 11.1292C9.65095 11.5193 9.87009 12.0484 9.87009 12.6V17.8C9.87009 18.0732 9.81629 18.3437 9.71176 18.596C9.60723 18.8484 9.45402 19.0777 9.26087 19.2708C9.06773 19.464 8.83843 19.6172 8.58607 19.7217C8.33372 19.8262 8.06324 19.88 7.79009 19.88C7.51694 19.88 7.24647 19.8262 6.99411 19.7217C6.74175 19.6172 6.51246 19.464 6.31931 19.2708C6.12616 19.0777 5.97295 18.8484 5.86842 18.596C5.76389 18.3437 5.71009 18.0732 5.71009 17.8V12.6ZM7.79009 4.25003C7.37871 4.25003 6.97656 4.12804 6.63451 3.89948C6.29245 3.67093 6.02585 3.34608 5.86842 2.96601C5.71099 2.58594 5.6698 2.16772 5.75006 1.76424C5.83032 1.36076 6.02842 0.990139 6.31931 0.699246C6.6102 0.408352 6.98082 0.210252 7.3843 0.129994C7.78779 0.0497371 8.206 0.0909281 8.58607 0.248358C8.96614 0.405789 9.291 0.672387 9.51955 1.01444C9.7481 1.3565 9.87009 1.75864 9.87009 2.17003V4.25003H7.79009ZM7.79009 5.31003C8.0747 5.29026 8.36033 5.32925 8.62922 5.42457C8.89812 5.5199 9.14453 5.66952 9.35314 5.86414C9.56174 6.05876 9.72808 6.29421 9.84181 6.55585C9.95554 6.81749 10.0142 7.09974 10.0142 7.38503C10.0142 7.67032 9.95554 7.95256 9.84181 8.21421C9.72808 8.47585 9.56174 8.7113 9.35314 8.90592C9.14453 9.10053 8.89812 9.25016 8.62922 9.34548C8.36033 9.44081 8.0747 9.4798 7.79009 9.46003H2.58009C2.29549 9.4798 2.00986 9.44081 1.74096 9.34548C1.47206 9.25016 1.22565 9.10053 1.01705 8.90592C0.808445 8.7113 0.642106 8.47585 0.528376 8.21421C0.414647 7.95256 0.355957 7.67032 0.355957 7.38503C0.355957 7.09974 0.414647 6.81749 0.528376 6.55585C0.642106 6.29421 0.808445 6.05876 1.01705 5.86414C1.22565 5.66952 1.47206 5.5199 1.74096 5.42457C2.00986 5.32925 2.29549 5.29026 2.58009 5.31003H7.79009ZM16.1201 7.39003C16.1181 6.97822 16.2384 6.5751 16.4658 6.23173C16.6931 5.88836 17.0173 5.62021 17.3972 5.46124C17.777 5.30228 18.1956 5.25966 18.5997 5.33878C19.0039 5.41791 19.3754 5.61521 19.6673 5.90571C19.9592 6.1962 20.1583 6.5668 20.2394 6.97055C20.3204 7.3743 20.2798 7.79303 20.1227 8.17368C19.9656 8.55434 19.699 8.87978 19.3567 9.10878C19.0144 9.33778 18.6119 9.46002 18.2001 9.46003H16.1201V7.40003V7.39003ZM15.0801 7.39003C15.0801 7.94168 14.861 8.47073 14.4709 8.86081C14.0808 9.25088 13.5517 9.47003 13.0001 9.47003C12.4484 9.47003 11.9194 9.25088 11.5293 8.86081C11.1392 8.47073 10.9201 7.94168 10.9201 7.39003V2.17003C10.9201 1.61838 11.1392 1.08932 11.5293 0.699246C11.9194 0.30917 12.4484 0.0900278 13.0001 0.0900278C13.5517 0.0900278 14.0808 0.30917 14.4709 0.699246C14.861 1.08932 15.0801 1.61838 15.0801 2.17003V7.40003V7.39003ZM13.0001 15.72C13.4115 15.72 13.8136 15.842 14.1557 16.0706C14.4977 16.2991 14.7643 16.624 14.9218 17.004C15.0792 17.3841 15.1204 17.8023 15.0401 18.2058C14.9599 18.6093 14.7618 18.9799 14.4709 19.2708C14.18 19.5617 13.8094 19.7598 13.4059 19.8401C13.0024 19.9203 12.5842 19.8791 12.2041 19.7217C11.824 19.5643 11.4992 19.2977 11.2706 18.9556C11.0421 18.6136 10.9201 18.2114 10.9201 17.8V15.72H13.0001ZM13.0001 14.68C12.4484 14.68 11.9194 14.4609 11.5293 14.0708C11.1392 13.6807 10.9201 13.1517 10.9201 12.6C10.9201 12.0484 11.1392 11.5193 11.5293 11.1292C11.9194 10.7392 12.4484 10.52 13.0001 10.52H18.2201C18.7717 10.52 19.3008 10.7392 19.6909 11.1292C20.0809 11.5193 20.3001 12.0484 20.3001 12.6C20.3001 13.1517 20.0809 13.6807 19.6909 14.0708C19.3008 14.4609 18.7717 14.68 18.2201 14.68H13.0001Z"
                        fill="white" />
                </g>
            </g>
        </g>
    </g>
    <defs>
        <clipPath id="clip0_31_126">
            <rect width="79" height="20" fill="white" />
        </clipPath>
        <clipPath id="clip1_31_126">
            <rect width="79" height="20" fill="white" />
        </clipPath>
        <clipPath id="clip2_31_126">
            <rect width="79" height="20" fill="white" />
        </clipPath>
    </defs>
</svg>